<mxfile host="app.diagrams.net" modified="2022-05-12T02:49:37.097Z" agent="5.0 (Windows)" etag="cp0F2LaW0KF7ha2QzABE" version="18.0.3" type="github">
  <diagram id="WPUKt3A7oiI-CKSTH1vF" name="Page-1">
    <mxGraphModel dx="1359" dy="710" grid="0" gridSize="10" guides="1" tooltips="1" connect="1" arrows="1" fold="1" page="0" pageScale="1" pageWidth="827" pageHeight="1169" math="0" shadow="0">
      <root>
        <mxCell id="0" />
        <mxCell id="1" parent="0" />
        <mxCell id="qWO8GCQ1N2hHEBJl1-c2-44" value="" style="rounded=1;whiteSpace=wrap;html=1;labelBackgroundColor=none;fontSize=14;fillColor=none;fontColor=#333333;strokeColor=#FF3333;strokeWidth=2;dashed=1;dashPattern=1 1;" parent="1" vertex="1">
          <mxGeometry x="249" y="231.62" width="355" height="218.38" as="geometry" />
        </mxCell>
        <mxCell id="WDFu7RG4AvuWlvJgH90q-14" value="" style="line;strokeWidth=2;html=1;rounded=1;" parent="1" vertex="1">
          <mxGeometry x="28" y="147" width="860" height="26.25" as="geometry" />
        </mxCell>
        <mxCell id="qWO8GCQ1N2hHEBJl1-c2-2" value="" style="line;strokeWidth=2;direction=north;html=1;rounded=1;" parent="1" vertex="1">
          <mxGeometry x="187" y="160" width="10" height="290" as="geometry" />
        </mxCell>
        <mxCell id="qWO8GCQ1N2hHEBJl1-c2-3" value="" style="line;strokeWidth=2;html=1;rounded=1;" parent="1" vertex="1">
          <mxGeometry x="112" y="240" width="80" height="26.25" as="geometry" />
        </mxCell>
        <mxCell id="qWO8GCQ1N2hHEBJl1-c2-4" value="" style="line;strokeWidth=2;html=1;rounded=1;" parent="1" vertex="1">
          <mxGeometry x="112" y="347" width="80" height="26.25" as="geometry" />
        </mxCell>
        <mxCell id="qWO8GCQ1N2hHEBJl1-c2-6" value="生产机" style="image;html=1;image=img/lib/clip_art/computers/Monitor_Tower_128x128.png;fontSize=14;rounded=1;" parent="1" vertex="1">
          <mxGeometry x="32" y="213.13" width="80" height="80" as="geometry" />
        </mxCell>
        <mxCell id="qWO8GCQ1N2hHEBJl1-c2-9" value="" style="line;strokeWidth=2;direction=north;html=1;rounded=1;" parent="1" vertex="1">
          <mxGeometry x="322" y="160" width="10" height="120" as="geometry" />
        </mxCell>
        <mxCell id="qWO8GCQ1N2hHEBJl1-c2-12" value="" style="line;strokeWidth=2;html=1;rounded=1;" parent="1" vertex="1">
          <mxGeometry x="360" y="297.88" width="70" height="26.25" as="geometry" />
        </mxCell>
        <mxCell id="qWO8GCQ1N2hHEBJl1-c2-13" value="" style="line;strokeWidth=2;direction=north;html=1;rounded=1;" parent="1" vertex="1">
          <mxGeometry x="425" y="240" width="10" height="170" as="geometry" />
        </mxCell>
        <mxCell id="qWO8GCQ1N2hHEBJl1-c2-14" value="" style="line;strokeWidth=2;html=1;rounded=1;" parent="1" vertex="1">
          <mxGeometry x="430" y="260" width="60" height="26.25" as="geometry" />
        </mxCell>
        <mxCell id="qWO8GCQ1N2hHEBJl1-c2-15" value="" style="line;strokeWidth=2;html=1;rounded=1;" parent="1" vertex="1">
          <mxGeometry x="430" y="370" width="60" height="26.25" as="geometry" />
        </mxCell>
        <mxCell id="qWO8GCQ1N2hHEBJl1-c2-16" value="Media Server" style="image;html=1;image=img/lib/clip_art/computers/Server_128x128.png;fontSize=14;fontStyle=1;rounded=1;" parent="1" vertex="1">
          <mxGeometry x="490" y="233.13" width="80" height="80" as="geometry" />
        </mxCell>
        <mxCell id="qWO8GCQ1N2hHEBJl1-c2-17" value="Media Server" style="image;html=1;image=img/lib/clip_art/computers/Server_128x128.png;fontSize=14;fontStyle=1;rounded=1;" parent="1" vertex="1">
          <mxGeometry x="490" y="343.12" width="80" height="80" as="geometry" />
        </mxCell>
        <mxCell id="qWO8GCQ1N2hHEBJl1-c2-18" value="" style="line;strokeWidth=2;html=1;rounded=1;" parent="1" vertex="1">
          <mxGeometry x="570" y="260" width="170" height="26.25" as="geometry" />
        </mxCell>
        <mxCell id="qWO8GCQ1N2hHEBJl1-c2-20" value="CD" style="aspect=fixed;perimeter=ellipsePerimeter;html=1;align=center;shadow=0;dashed=0;spacingTop=3;image;image=img/lib/active_directory/cd_dvd.svg;labelBackgroundColor=none;fontSize=14;rounded=1;" parent="1" vertex="1">
          <mxGeometry x="811" y="503" width="50" height="50" as="geometry" />
        </mxCell>
        <mxCell id="qWO8GCQ1N2hHEBJl1-c2-25" value="" style="line;strokeWidth=2;html=1;rounded=1;" parent="1" vertex="1">
          <mxGeometry x="570" y="369.99" width="170" height="26.25" as="geometry" />
        </mxCell>
        <mxCell id="qWO8GCQ1N2hHEBJl1-c2-26" value="" style="line;strokeWidth=2;direction=north;html=1;rounded=1;" parent="1" vertex="1">
          <mxGeometry x="735" y="351" width="13.13" height="310" as="geometry" />
        </mxCell>
        <mxCell id="qWO8GCQ1N2hHEBJl1-c2-27" value="" style="line;strokeWidth=2;direction=north;html=1;rounded=1;" parent="1" vertex="1">
          <mxGeometry x="735" y="213.13" width="10" height="96.87" as="geometry" />
        </mxCell>
        <mxCell id="qWO8GCQ1N2hHEBJl1-c2-29" value="" style="html=1;aspect=fixed;strokeColor=none;shadow=0;align=center;verticalAlign=top;fillColor=#3B8DF1;shape=mxgraph.gcp2.tape_record;labelBackgroundColor=none;rounded=1;" parent="1" vertex="1">
          <mxGeometry x="811" y="595" width="56.34" height="40" as="geometry" />
        </mxCell>
        <mxCell id="qWO8GCQ1N2hHEBJl1-c2-32" value="tape" style="text;html=1;align=center;verticalAlign=middle;resizable=0;points=[];autosize=1;strokeColor=none;fillColor=none;fontSize=14;rounded=1;" parent="1" vertex="1">
          <mxGeometry x="822" y="642" width="38" height="21" as="geometry" />
        </mxCell>
        <mxCell id="qWO8GCQ1N2hHEBJl1-c2-34" value="" style="line;strokeWidth=2;html=1;rounded=1;" parent="1" vertex="1">
          <mxGeometry x="740" y="431.25" width="70" height="26.25" as="geometry" />
        </mxCell>
        <mxCell id="qWO8GCQ1N2hHEBJl1-c2-35" value="" style="line;strokeWidth=2;html=1;rounded=1;" parent="1" vertex="1">
          <mxGeometry x="740" y="514.88" width="70" height="26.25" as="geometry" />
        </mxCell>
        <mxCell id="qWO8GCQ1N2hHEBJl1-c2-36" value="" style="line;strokeWidth=2;html=1;rounded=1;" parent="1" vertex="1">
          <mxGeometry x="740" y="608.75" width="70" height="26.25" as="geometry" />
        </mxCell>
        <mxCell id="qWO8GCQ1N2hHEBJl1-c2-37" value="disk" style="shape=image;html=1;verticalAlign=top;verticalLabelPosition=bottom;labelBackgroundColor=#ffffff;imageAspect=0;aspect=fixed;image=https://cdn0.iconfinder.com/data/icons/Hosting_Icons/128/dedicated-server-px-png.png;fontSize=14;rounded=1;" parent="1" vertex="1">
          <mxGeometry x="609" y="461" width="70" height="70" as="geometry" />
        </mxCell>
        <mxCell id="qWO8GCQ1N2hHEBJl1-c2-38" value="" style="line;strokeWidth=2;html=1;rounded=1;" parent="1" vertex="1">
          <mxGeometry x="680" y="484.75" width="60" height="26.25" as="geometry" />
        </mxCell>
        <mxCell id="qWO8GCQ1N2hHEBJl1-c2-40" value="" style="line;strokeWidth=2;html=1;rounded=1;" parent="1" vertex="1">
          <mxGeometry x="680" y="583.75" width="60" height="26.25" as="geometry" />
        </mxCell>
        <mxCell id="qWO8GCQ1N2hHEBJl1-c2-50" value="BlackCube" style="text;html=1;align=center;verticalAlign=middle;resizable=0;points=[];autosize=1;strokeColor=none;fillColor=none;fontSize=16;fontColor=#FF0000;rounded=1;" parent="1" vertex="1">
          <mxGeometry x="241" y="206" width="87" height="23" as="geometry" />
        </mxCell>
        <mxCell id="qWO8GCQ1N2hHEBJl1-c2-55" value="Master Server" style="points=[];aspect=fixed;html=1;align=center;shadow=0;dashed=0;image;image=img/lib/allied_telesis/computer_and_terminals/Server_Desktop.svg;dashPattern=1 1;labelBackgroundColor=none;fontSize=16;fontColor=#000000;strokeColor=#FF3333;strokeWidth=2;fillColor=none;fontStyle=1;rounded=1;" parent="1" vertex="1">
          <mxGeometry x="298.59999999999997" y="280" width="56.8" height="72" as="geometry" />
        </mxCell>
        <mxCell id="qWO8GCQ1N2hHEBJl1-c2-57" value="" style="html=1;aspect=fixed;strokeColor=none;shadow=0;align=center;verticalAlign=top;fillColor=#3B8DF1;shape=mxgraph.gcp2.tape_record;labelBackgroundColor=none;rounded=1;" parent="1" vertex="1">
          <mxGeometry x="615.83" y="576.88" width="56.34" height="40" as="geometry" />
        </mxCell>
        <mxCell id="qWO8GCQ1N2hHEBJl1-c2-58" value="tape" style="text;html=1;align=center;verticalAlign=middle;resizable=0;points=[];autosize=1;strokeColor=none;fillColor=none;fontSize=14;rounded=1;" parent="1" vertex="1">
          <mxGeometry x="626" y="622" width="38" height="21" as="geometry" />
        </mxCell>
        <mxCell id="qWO8GCQ1N2hHEBJl1-c2-77" value="cloud" style="image;html=1;image=img/lib/clip_art/networking/Cloud_128x128.png;labelBackgroundColor=none;fontSize=14;fontColor=#000000;strokeColor=#000000;strokeWidth=2;fillColor=none;rounded=1;" parent="1" vertex="1">
          <mxGeometry x="810" y="412.5" width="50.83" height="45" as="geometry" />
        </mxCell>
        <mxCell id="mQkJP3J9dSTgJErpyEt6-1" value="Database Server" style="aspect=fixed;perimeter=ellipsePerimeter;html=1;align=center;shadow=0;dashed=0;spacingTop=3;image;image=img/lib/active_directory/database_server.svg;rounded=0;sketch=0;fontSize=14;" vertex="1" parent="1">
          <mxGeometry x="41.71" y="323.19" width="60.57" height="73.87" as="geometry" />
        </mxCell>
      </root>
    </mxGraphModel>
  </diagram>
</mxfile>
